<svg width="72" height="34" viewBox="0 0 72 34" fill="none" xmlns="http://www.w3.org/2000/svg">
<rect y="0.292969" width="19.3171" height="2.34147" fill="#00FFE0"/>
<rect y="10.8301" width="19.3171" height="2.34147" fill="#00FFE0"/>
<rect y="3.80469" width="5.2683" height="2.34147" fill="#00FFE0"/>
<rect x="14.0488" y="3.80469" width="5.2683" height="2.34147" fill="#00FFE0"/>
<rect x="14.0488" y="7.31641" width="5.2683" height="2.34147" fill="#00FFE0"/>
<rect y="7.31641" width="5.2683" height="2.34147" fill="#00FFE0"/>
<rect y="14.3418" width="5.2683" height="2.34147" fill="#00FFE0"/>
<rect y="17.8535" width="5.2683" height="2.34147" fill="#00FFE0"/>
<rect y="21.3652" width="5.2683" height="2.34147" fill="#00FFE0"/>
<rect x="26.3413" y="3.80469" width="5.2683" height="2.34147" fill="#00FFE0"/>
<rect x="26.3413" y="0.292969" width="5.2683" height="2.34147" fill="#00FFE0"/>
<rect x="26.3413" y="7.31641" width="5.2683" height="2.34147" fill="#00FFE0"/>
<rect x="26.3413" y="10.8301" width="5.2683" height="2.34147" fill="#00FFE0"/>
<rect x="26.3413" y="14.3418" width="5.2683" height="2.34147" fill="#00FFE0"/>
<rect x="26.3413" y="17.8535" width="5.2683" height="2.34147" fill="#00FFE0"/>
<rect x="52.6826" y="3.80469" width="7.31708" height="2.34147" fill="#00FFE0"/>
<rect x="64.6831" y="17.8535" width="7.31708" height="2.34147" fill="#00FFE0"/>
<rect x="52.6826" y="0.292969" width="5.2683" height="2.34147" fill="#00FFE0"/>
<rect x="66.7314" y="21.3652" width="5.2683" height="2.34147" fill="#00FFE0"/>
<rect x="52.6826" y="21.3652" width="5.2683" height="2.34147" fill="#00FFE0"/>
<rect x="52.6826" y="7.31641" width="5.2683" height="2.34147" fill="#00FFE0"/>
<rect x="59.4155" y="7.31641" width="3.21952" height="2.34147" fill="#00FFE0"/>
<rect x="52.6826" y="10.8301" width="5.2683" height="2.34147" fill="#00FFE0"/>
<rect x="60.8779" y="10.8301" width="3.21952" height="2.34147" fill="#00FFE0"/>
<rect x="52.6826" y="14.3418" width="5.2683" height="2.34147" fill="#00FFE0"/>
<rect x="62.3403" y="14.3418" width="3.21952" height="2.34147" fill="#00FFE0"/>
<rect x="52.6826" y="17.8535" width="5.2683" height="2.34147" fill="#00FFE0"/>
<rect x="66.7314" y="3.80469" width="5.2683" height="2.34147" fill="#00FFE0"/>
<rect x="66.7314" y="0.292969" width="5.2683" height="2.34147" fill="#00FFE0"/>
<rect x="66.7314" y="7.31641" width="5.2683" height="2.34147" fill="#00FFE0"/>
<rect x="66.7314" y="10.8301" width="5.2683" height="2.34147" fill="#00FFE0"/>
<rect x="66.7314" y="14.3418" width="5.2683" height="2.34147" fill="#00FFE0"/>
<rect x="40.3901" y="3.80469" width="5.2683" height="2.34147" fill="#00FFE0"/>
<rect x="40.3901" y="0.292969" width="5.2683" height="2.34147" fill="#00FFE0"/>
<rect x="40.3901" y="7.31641" width="5.2683" height="2.34147" fill="#00FFE0"/>
<rect x="40.3901" y="10.8301" width="5.2683" height="2.34147" fill="#00FFE0"/>
<rect x="40.3901" y="14.3418" width="5.2683" height="2.34147" fill="#00FFE0"/>
<rect x="40.3901" y="17.8535" width="5.2683" height="2.34147" fill="#00FFE0"/>
<rect x="28.9756" y="21.3652" width="5.2683" height="2.34147" fill="#00FFE0"/>
<rect x="33.3667" y="17.8535" width="5.2683" height="2.34147" fill="#00FFE0"/>
<rect x="33.3667" y="14.3418" width="5.2683" height="2.34147" fill="#00FFE0"/>
<rect x="37.7573" y="21.3652" width="5.2683" height="2.34147" fill="#00FFE0"/>
<path d="M57.3348 28.1689C57.3348 27.8695 57.2307 27.6156 57.0224 27.4073C56.8076 27.1926 56.5505 27.0852 56.2511 27.0852H54.0837V32.5134H56.2511C56.5505 32.5134 56.8043 32.4093 57.0126 32.201C57.2274 31.9862 57.3348 31.7291 57.3348 31.4297V28.1689ZM58.4283 31.4297C58.4283 32.0285 58.2167 32.5395 57.7937 32.9625C57.3576 33.3856 56.8434 33.5971 56.2511 33.5971H53V26.0015H56.2511C56.8499 26.0015 57.3608 26.213 57.7839 26.6361C58.2135 27.0591 58.4283 27.5701 58.4283 28.1689V31.4297Z" fill="#00FFE0"/>
<path d="M60.8696 30.346H64.1207L62.5 27.0852L60.8696 30.346ZM60.8696 33.5971H59.7859V30.0727L61.8166 26.0015H63.1737L65.2141 30.0727V33.5971H64.1207V31.4297H60.8696V33.5971Z" fill="#00FFE0"/>
<path d="M70.9065 28.1689C70.9065 27.8695 70.8024 27.6156 70.5941 27.4073C70.3793 27.1926 70.1222 27.0852 69.8228 27.0852H68.7391C68.4397 27.0852 68.1859 27.1893 67.9776 27.3976C67.7628 27.6124 67.6554 27.8695 67.6554 28.1689V31.4297C67.6554 31.7291 67.7596 31.983 67.9679 32.1913C68.1826 32.406 68.4397 32.5134 68.7391 32.5134H69.8228C70.1222 32.5134 70.3761 32.4093 70.5844 32.201C70.7991 31.9862 70.9065 31.7291 70.9065 31.4297V28.1689ZM72 31.4297C72 32.0285 71.7885 32.5395 71.3654 32.9625C70.9293 33.3856 70.4151 33.5971 69.8228 33.5971H68.7391C68.1468 33.5971 67.6392 33.3856 67.2161 32.9625C66.7865 32.533 66.5717 32.022 66.5717 31.4297V28.1689C66.5717 27.5701 66.7833 27.0591 67.2063 26.6361C67.6424 26.213 68.1533 26.0015 68.7391 26.0015H69.8228C70.4216 26.0015 70.9326 26.213 71.3556 26.6361C71.7852 27.0591 72 27.5701 72 28.1689V31.4297Z" fill="#00FFE0"/>
</svg>
